<svg version="1" xmlns="http://www.w3.org/2000/svg" width="2880" height="2880" viewBox="0 0 2160.000000 2160.000000"><path d="M1620.8 6.6c-.2.1-8.8.5-19 .8-17.4.4-22.7 1.2-22 3.3.2.9-2.4 13.9-3.9 18.8-.5 1.6-1.1 4.8-1.5 6.9-.3 2.2-1 5.1-1.6 6.5-.5 1.4-.9 2.7-.9 2.8.1.2.1.4 0 .5 0 .2-.2 1.2-.4 2.3-1.1 5.3-5.7 24.2-8.4 34.5-1.6 6.3-3.2 12.6-3.5 14-.2 1.4-1.6 7.4-3.1 13.5-2.8 11.8-5.9 24.9-7.1 30.5-.4 1.9-.9 3.9-1 4.5-.2.5-.5 2-.8 3.3-.3 1.3-.7 3.1-1 4-.3.9-.7 2.8-1 4.2-.2 1.4-1.3 6.3-2.4 11-1.2 4.7-2.4 10.3-2.8 12.5-.3 2.2-1.1 4.6-1.7 5.2-.5.7-.7 1.3-.4 1.3.3 0 .1 1.7-.4 3.7-.5 2.1-1.2 4.9-1.5 6.3-.3 1.4-1.6 6.9-3 12.2-1.3 5.4-2.5 11-2.6 12.5-.1 1.5-.5 3.2-.9 3.8-.3.5-1 2.8-1.4 5-.5 2.2-1 4.4-1.1 5-.3 1.1-1.1 4.8-1.8 8.3-.3 1.2-.7 2.5-.9 3-.3.4-.8 2.5-1.1 4.7-.4 2.2-1.1 5.8-1.7 8-.6 2.2-1.3 4.8-1.5 5.8-.2 1-.5 2.6-.8 3.5-.3.9-.7 2.8-1 4.2-.3 1.4-1.2 5.2-2 8.6-1.5 5.9-1.8 7.5-3.1 13.8-.3 1.6-.8 3.3-1 3.6-.2.4-.7 2.1-1 3.9-.3 1.8-2.1 9.6-4 17.4-1.8 7.8-3.6 15.3-3.8 16.7-.3 1.4-1 4.3-1.5 6.5-.6 2.2-1.3 5.1-1.6 6.5-.4 2.5-5.8 24.9-7.7 32.5-.6 2.2-1.2 4.9-1.4 6-.9 5.2-1.4 7.5-1.8 8.2-.3.5-.8 2.4-1.1 4.3-.3 1.9-1.1 5.3-1.6 7.5-.6 2.2-1.3 5.1-1.6 6.5-.3 1.4-1.9 8.1-3.5 15-1.7 6.9-3.2 13.4-3.5 14.5-.2 1.1-.6 3.2-1 4.7-.3 1.5-.5 2.9-.4 3 .1.2-.3 1.6-.9 3.1-.6 1.5-1.3 4.2-1.6 6-.3 1.8-1.1 5-1.7 7.2-.6 2.2-1.2 5-1.4 6.2-.1 1.3-.5 3.2-.9 4.2-.3 1.1-.7 2.8-.9 3.8-.2 1-1.6 6.5-2.9 12.3-1.4 5.8-2.9 12-3.2 13.9-.3 1.9-.8 3.7-1 4.1-.4.6-.7 2-2.1 8.7-.3 1.6-1.1 5.3-1.9 8.3-3.1 12.2-3.5 15.2-2.3 16.7 1 1.3.4 8.5-.9 10.6-.4.7-1.4 1.7-2.4 2.4-.9.7-2 2.7-2.4 4.5-.4 1.8-.9 3.5-1 3.8-.2.7-2.4 10.8-3 13.8-.2 1.3-.7 3.2-1 4.2-.3 1-.8 2.8-1 3.9-.3 1.2-.7 2.9-.9 3.8-.8 3.5-2.8 11.8-3.1 13.3-.4 1.9-3.3 14.4-4.6 19.5-.5 2.2-1.2 5.1-1.5 6.5-.3 1.4-1 4.3-1.5 6.5s-1.1 4.8-1.4 5.8c-.2 1-.6 2.6-.9 3.5-.3.9-.7 2.8-1 4.2-.3 1.4-1.1 5.1-1.7 8.2-.7 3.2-1.1 6-.8 6.2.2.3 1.9.7 3.6 1.1 1.8.3 4.3.9 5.7 1.5 1.5.5 2.6.8 2.6.5 0-.2 1.4.1 3.1.7 3 1 3 1.1 2.4 6.2-.4 2.8-.9 5.4-1.1 5.8-.3.4.6 1.9 1.8 3.3 1.3 1.5 2.4 3.8 2.5 5.1l.2 2.5-9.3-.6-9.3-.7-3.8 3.3c-4.1 3.6-4.2 3.9-9.2 19.4-6.5 20.5-7.1 22.9-5.9 24.1.7.6 3.9 2.6 7.2 4.4l6 3.4-3.3 14.5c-1.9 8-3.8 16.6-4.4 19.1-.5 2.5-1.2 5.6-1.5 7-.3 1.4-1 4.3-1.6 6.5-1.2 4.8-1.7 7.2-2.2 10.5-.3 1.4-.7 3.2-1 4-.3.8-.7 2.6-1 4-.4 2.3-5.3 23.7-9.8 43-1.1 4.7-2.1 9.3-2.1 10.2-.1 1-.5 1.8-1 1.8-.4 0-.6.3-.3.8.2.4-.6 5.2-1.9 10.7-1.3 5.5-2.6 11.1-2.9 12.5-.3 1.4-.7 3.4-1 4.5-.6 2.8-4.7 20.7-5.1 22.5-.2.8-1 4.5-1.9 8.1-.8 3.7-1.8 8-2.1 9.5-1.4 6.8-1.6 7.8-2 8.4-.2.4-.7 2.2-1 4.1-.3 1.9-1.3 6.3-2.1 9.9-.8 3.6-2.7 11.4-4 17.5-1.4 6-2.7 11.7-2.9 12.5-5.1 21.7-5.6 24.4-4.5 27.4.3 1 .1 4-.6 6.7s-1.5 6.1-1.7 7.6c-.4 2.5-5.7 24.8-7.4 31.3-.8 3.4-1 4.1-1.7 7-.3 1.4-1 4.5-1.7 7-.6 2.5-1.3 5.4-1.5 6.5-.2 1.1-.6 3-.9 4.2-.3 1.3-.7 3.2-1 4.4-.2 1.1-.6 2.8-.9 3.7-.3.9-.7 2.8-1 4.2-.6 2.9-.7 3.5-3.6 15.5-1.2 4.9-2.2 9.6-2.3 10.2 0 .7-.4 1.3-.8 1.3-1.2 0-3.5 4.9-4.4 9.5-.5 2.2-.9 4.4-1.1 5-4.7 18.8-7.6 30.5-8 32.5-.2 1.4-.7 3.2-1 4-.3.8-.8 2.6-1.1 4-.2 1.4-1.3 5.6-2.3 9.5-1 3.8-2.1 8.1-2.3 9.5-.3 1.4-1 4.5-1.7 7s-1.4 5.2-1.6 6c-.2.8-1.7 7.1-3.3 14-1.7 6.9-3.1 12.8-3.1 13.1 0 .3-1.1 1.8-2.5 3.3-2.2 2.4-26.7 50.7-26.4 52.2 0 .4-.3 1-.8 1.3-.9.7-9.5 17.3-9.1 17.6.8.5 10.4 8.1 10.8 8.6.3.3 4.6 3.8 9.5 7.8 15.9 12.8 15.1 11.9 13.4 14.6-.8 1.3-3 4.1-5 6.2-1.9 2.1-3.6 4-3.6 4.3-.1.3-.6 1.8-1.2 3.3-4.6 12 5.9 25.4 18.9 24.1 5.6-.6 10-3.3 18.2-11.2l6.7-6.6 6.8 2.4c19.6 6.7 31.7 12.2 35.3 15.8l3.6 3.7-.2 24.5c-.2 27.1.8 33.6 6 41.8l2.7 4.3-2.6 6.2c-3.8 9-3.8 9.1-1.6 11.2 1.7 1.4 2.6 1.6 4.4.8 1.2-.6 4.5-2 7.3-3.3l5-2.2 8.7 8.6c4.8 4.8 10.4 11.7 12.7 15.5 2.2 3.7 5.6 8.5 7.6 10.7 7.3 8 10.4 12.2 10.4 13.8 0 5 4.9 12.3 11.5 17 2 1.5 2 1.5-.2 3.6-1.3 1.1-2.3 2.5-2.3 3 0 1.7 0 1.9-1.4 5.8-2.8 7.9-6.8 15.6-13.8 26.5-6.7 10.6-8.2 13.1-14.7 25.2-7.4 13.5-10.7 19.5-13.7 24.8-1.9 3.2-3.4 6-3.4 6.2 0 1.1-14.9 25-20 32-5.7 7.9-15.7 26.3-16.5 30.3-.2 1.1-.7 4.2-1.1 6.9-.3 2.6-.8 5.7-1 6.8-.3 1.1-.7 8-1 15.4l-.6 13.5-5.1 5c-2.8 2.8-7 8.1-9.4 11.8-2.4 3.8-4.9 6.8-5.6 6.9-.7 0-3.4.2-6.2.4-4.7.3-8.5.7-21.5 2.1-6.5.7-16.4 3.9-20.2 6.5-1.4 1.1-3 1.9-3.5 1.9-1.5 0-13.7 14.3-16.8 19.7-1.1 1.8-2.3 3.3-2.7 3.3-.4 0-.8.5-.8 1 0 1.2-10.3 17.9-11 18-.3 0-.6-1.9-.7-4.3-.1-2.3-.4-9.6-.7-16.3-1.8-40.3-2.2-80-1.6-157.4.2-18.8-.3-36.1-1.6-53.5-.3-5.4-1.6-63.6-1.7-80 0-5.5.3-20.1.7-32.5.7-22.2 1.1-38.3 2.1-75.5.3-10.5.7-24.6 1-31.5.8-20.8.8-69 0-77.5-.4-4.4-.8-10-1-12.5-2.5-40-2.5-60.3 0-86.1.5-4.9 4.9-23.1 10.4-42.9 1.7-6 1.7-6.6.2-8.4-3.1-3.6-7-4.8-13-4.1-3.1.3-8.1.8-11.1 1-3 .2-8.9.6-13 .9-4.1.3-12 .8-17.5 1.1-10.4.5-17.2 1.1-21.5 2-1.4.3-5 .8-8 1.1-3 .3-5.7.7-6 .9-.3.2-2.9.6-5.9 1-3 .4-6.3.8-7.3 1-1.1.2-1.8 0-1.6-.5.2-.5 19.4-20.2 42.8-43.8 23.4-23.5 49.3-49.9 57.5-58.7 8.3-8.7 17.3-18.2 20-21 9.5-9.9 17-18.1 23-25 3.3-3.8 6.7-7.6 7.5-8.5.8-.9 3-3.4 4.9-5.5 1.9-2.2 6.7-7.6 10.7-12 14.8-16.3 17.5-20 17.6-24.4.2-5.3-1.5-6.4-21.7-14.6-4.9-2-11-4.5-13.5-5.5-2.5-1.1-12.4-5.1-22-9-9.6-4-19-7.8-20.7-8.6-1.8-.8-4.8-2-6.5-2.8-1.8-.8-8-3.3-13.8-5.6-19.9-7.9-47.5-19.3-48.6-20.2-1.4-1-.9-18.4.7-25.1 2.1-8.8 7.9-12.8 20.9-14.2 16.5-1.8 26.7-6.1 34.8-14.6 11.8-12.4 11.7-23.1-.5-49.9-1.7-3.6-3.6-8.3-4.3-10.5-.7-2.2-1.6-4.2-2-4.5-.4-.3-1.2-2.3-1.8-4.5-.8-3.2-9.8-29.4-10.3-30.3-.1-.1-.2-.5-.3-1-.6-2.7-5.4-14.9-10.6-26.7-7.9-17.8-10.7-29.5-8.3-34.8 3.3-7.2 5.1-10.2 6.1-10 .6.2.9-.4.6-1.2-.6-1.4 1.2-2.1 3.9-1.6.5.1.6-.3.2-.9-.3-.5-.2-1 .2-1 1.3 0 9.4-7.6 9.2-8.6-.1-.5-.1-1.6 0-2.4.1-1.3.2-1.3 1.1 0 .5.8 1 1 1 .4s-.6-1.7-1.4-2.3c-1.1-.9-1.5-.7-1.9 1.1-.4 1.2-.9 2-1.2 1.6-.3-.3 0-1.7.6-3.2 1-2 1.5-2.3 2.6-1.5 1.1.9 1.3.7 1-1.2-.2-1.3.4-4.3 1.4-6.6 3.5-8.3 4.9-21.2 3.5-32.8-1.1-9.1-3.2-21.6-4-24.3-.3-.9-.7-2.8-1-4.2-.2-1.4-1-4.8-1.6-7.5-.6-2.8-1.4-7.3-1.6-10-.2-2.8-.6-6.8-.9-9-.2-2.2-.7-6-1-8.5-.5-4.4-1.2-14-2-28.5-.2-3.9-.6-8.8-.9-11-1.1-9.4-1.7-14.2-2.2-17.5-.3-1.9-.7-5-.9-6.7-2.5-18.3-11.2-44.9-21.5-65.8-6.9-13.9-19.9-35.5-24.1-39.8-.8-.8-3.2-3.6-5.4-6.3-4.6-5.7-20.6-21.8-28.1-28.4-5.5-4.9-7.1-6.2-15.4-13-3-2.5-5.7-4.7-6-5-1.8-2.1-25.5-19-34.5-24.8-13-8.2-37.5-20.3-53-26.2-6-2.3-11.9-4.5-13-5-3.4-1.4-27.2-10-27.8-10-.3 0-1.8-.5-3.4-1.2-1.5-.6-3.2-1.2-3.8-1.4-.5-.1-5-1.4-10-2.9-4.9-1.5-10.1-2.9-11.5-3.2-1.4-.2-3.4-.8-4.5-1.2-1.9-.8-17.8-4.9-22-5.7-1.1-.2-3.1-.6-4.5-.9-1.4-.3-3.6-.7-5-1-1.4-.3-3.8-.8-5.5-1.2-1.6-.3-3.7-.7-4.5-.8-4.3-.6-11.7-1.8-13.4-2.1-2-.4-8.3-1.1-18.1-2-9.2-.9-53.1-.9-60.5 0-3.6.4-7.6.9-9 1.1-10.3 1.3-13.6 1.7-14.2 2.1-.6.4-6.6 1.8-13.3 3-1.6.3-6.6 1.7-11 3.2-4.4 1.4-8.5 2.7-9.1 2.8-2.2.4-6 1.7-9.9 3.4-2.2 1-6.9 3-10.5 4.6-9.4 4.1-30.3 14.9-39 20.2-9.3 5.6-21.1 13.3-22.6 14.7-.6.5-2.3 1.9-3.8 3-1.6 1.1-3.3 2.4-4 3-.6.5-2.9 2.3-5.1 4-2.1 1.6-4.6 3.6-5.5 4.5-.9.8-3.9 3.5-6.8 5.9-21.5 17.9-44.8 46.1-60.3 73.1-6.7 11.7-17.2 33.3-18.4 38-.2.8-1.6 4-3.6 8.9-1.1 2.4-2.1 5.4-2.3 6.7-.3 1.2-1.1 3.8-2 5.6-1.3 2.8-4.6 13.2-5.2 16.3-.1.5-1.2 4.4-2.4 8.5s-2.4 8.6-2.7 10c-.2 1.4-.9 4.3-1.4 6.5-.6 2.2-1.6 7.1-2.4 11-.7 3.8-1.6 8.3-2 10-.3 1.6-.8 5-1.1 7.5-.3 2.5-.7 5.8-1 7.5-2.3 17.6-2.3 62 .1 75 .3 1.6.7 4.3 1 6 .3 1.6.8 4.1 1.1 5.5.3 1.4 1 4.5 1.5 6.9 1.4 6.7 9.8 31.3 14.1 41.1 4.1 9.3 7.4 18.4 8.3 22.7.7 3.1.7 3.1 2.5 9.3.7 2.5 1.4 5.6 1.6 7 .2 1.4.6 4.5 1 7 .3 2.5.7 6.7.8 9.5l.1 5-3.7-.3c-6-.5-7.2 3.3-8.2 27.5-.3 5.1-.7 10.1-1 11-.3 1-.8 3.5-1 5.6-.4 3.5-2.8 12.5-6.2 23.7-1.6 5.3-7.2 32.4-7.8 37.8-.3 2-.7 7.3-1.1 11.6-.4 4.3-.9 8.8-1.1 10-.6 3.1-.6 22.6 0 26.6 1.3 8 1.4 11.4.6 16.3-1.5 9.2-2 12.2-2.5 14.7-.3 1.4-.7 3.6-1 5-.3 1.4-1.1 5.9-1.9 10-1.8 9-3.1 20.4-2.9 24.5.4 5.3.4 32.9.1 34.5-.2.8-.7 2.1-1.1 2.7-.5.7-.6 1.3-.2 1.3.3 0 .1.9-.5 2.1-.6 1.1-1.3 2.8-1.5 3.8-.2.9-4.3 8.6-9.1 17-8.6 15-8.8 15.5-8.9 22 0 5.7-.3 7-2.5 9.1-7.1 7.2-9.8 11.5-10.5 17-.3 3-1.1 7.3-1.7 9.5-.6 2.2-1.2 5.1-1.5 6.5-.2 1.4-.8 4.1-1.3 6-.5 1.9-1.2 4.9-1.5 6.7-.8 4.8-4.3 10.2-10.3 16-3 2.9-5.6 5.3-5.7 5.3-1.9 0-24.8 23-38 38-6.5 7.4-13 14.8-14.4 16.5-1.5 1.6-6.7 8.8-11.6 16-4.9 7.1-12.2 16.8-16.1 21.5-9.8 11.7-16.1 21.3-27.9 42.5-3.3 6-23.4 45.8-25.3 50-3.3 7.8-11.3 24.8-20.9 44.4-5.7 11.9-12 25.4-13.9 30.1-1.9 4.7-3.8 9.2-4.3 10-1.3 2.5-17.3 53.2-18.7 59.5-.4 1.6-.9 3.4-1.2 4-.4.5-.7 1.6-.8 2.5 0 .8-.8 4-1.7 7-.9 3-1.8 7.1-2.1 9-.3 1.9-.8 4.6-1.1 6-.3 1.4-1.2 6.1-2 10.5-1.9 10.3-2.3 12.6-2.8 15-.3 1.1-.8 4-1.2 6.5-.4 2.5-.9 5.4-1.2 6.5-.4 2.1-.9 4.8-1.9 10.5-1 6-1.4 8.2-3.9 20.5-1.3 6.6-2.6 13.6-2.9 15.5-.3 1.9-.8 4.6-1.1 6-.2 1.4-.7 3.6-1 5-.2 1.4-.7 4-1 5.7-.3 1.8-.7 4.5-1 6-.2 1.6-.7 5-1 7.8-.2 2.7-.6 5.9-.9 7-1.2 6-2.1 18.5-3 40.4-.4 7.4-.8 13.7-1.1 13.9-.2.3 0 1.3.6 2.3.5 1.1.6 1.9.2 1.9-.4 0-.8 3.5-.9 7.8-.1 4.2-.4 17.1-.8 28.7-1.5 42.4.1 105.3 3.1 118 .2 1.1 1.3 6.5 2.3 12 2.4 13 2.6 13.8 4.5 21.5.9 3.6 1.8 7.5 2.1 8.7.2 1.2.8 3.3 1.3 4.5.5 1.3.9 2.7 1 3.3.1.5.6 2.6 1.1 4.5 1.8 7 2.2 13.1 2.5 46 .2 18.4.6 35.1.9 37 .3 1.9.8 7.1 1.1 11.4.7 9 .7 9.1 3.1 24.3.3 2.1.7 5.4 1 7.3.2 1.9.5 4.7.8 6.3.2 1.5.7 5.5 1.1 9 .3 3.4.8 7.3 1 8.7.3 1.4.7 5 1 8 .3 3 .7 7.1 1 9 .2 1.9.7 7.3 1 11.9.4 4.6.8 9.2 1 10.3.3 1.1.7 5.5 1 9.7.4 4.2.8 9.2 1 11.1.2 1.9.6 7.1 1 11.5.3 4.4.8 9.8 1.1 11.9.3 2.2.7 6.2 1 9 .8 9.2 1.3 14 1.8 18.1.3 2.2.8 6.9 1.1 10.5.3 3.6.7 8.1.9 10 .2 1.9.7 7.1 1.1 11.5.3 4.4.8 9.1 1 10.5.2 1.4.7 6.5 1 11.5.4 5 .8 10.3 1 12 .2 1.6.5 4.7.6 6.8l.3 3.7h1137.5l6.2-7.8c3.5-4.2 6.6-7.9 6.9-8.2.3-.3 1.8-2.3 3.5-4.5 1.6-2.1 3.6-4.6 4.5-5.5.8-.8 3.1-3.6 5-6 1.9-2.5 3.7-4.7 4-5 .3-.3 2.5-3 5-6s4.7-5.7 5-6c.3-.3 2.3-2.8 4.5-5.5 2.1-2.8 4.2-5.2 4.5-5.5.3-.3 4.3-5 9-10.5s8.9-10.5 9.5-11.1c.5-.6 2.9-3.3 5.2-6 2.3-2.7 5.7-6.5 7.5-8.5 9.9-10.3 17.7-19.9 27.4-33.4 12.9-18.1 19.6-26.9 20.6-27.3.4-.2.8-1 .8-1.7s.3-1.5.8-1.7c.4-.1 2.9-3.2 5.7-6.8 2.7-3.6 5.2-6.7 5.5-7 .3-.3 1.9-2.3 3.5-4.5s10-11 18.5-19.5c13.2-13.2 20.5-20.9 30.3-32.4 1-1.2 3.5-3.9 5.5-6.1 2.1-2.2 5.3-6 7.2-8.5 1.9-2.5 3.7-4.7 4-5 .3-.3 1.8-2.3 3.5-4.5 1.6-2.2 3.3-4.5 3.7-5 .5-.6 2.2-2.8 3.9-5 1.6-2.2 3.5-4.7 4.2-5.5.7-.8 5.1-6.7 9.7-13 10.4-14.2 23.4-31.3 27.7-36.6 1.8-2.1 6.7-8.4 11-13.9s8.1-10.2 8.5-10.3c.4-.2.8-.8.8-1.3 0-.6 2.6-4.5 5.8-8.8 3.1-4.3 6.4-8.8 7.2-10.1 3.6-5.3 18.8-26.1 21.5-29.4 1.7-2 3.8-4.6 4.7-5.7 4.3-5.3 2.9-9-7.2-18.8-8.7-8.6-26.4-23.8-35.5-30.6-2.2-1.7-4.2-3.3-4.5-3.6-.3-.4-3.6-3.2-7.5-6.3-3.8-3.1-7.7-6.3-8.6-7-.8-.7-5.8-4.6-11-8.6-5.2-4.1-9.8-8-10.2-8.7-.4-.7-4.6-4-9.3-7.4-7.7-5.6-8.5-6.5-8-8.8.8-3.2 1-3.9 2.3-7.1.6-1.4 2.6-6.6 4.6-11.5 5.2-13.5 17-37 25.6-51.3 4.2-7 8.7-15.2 10-18.2 1.3-3 3.8-8.7 5.6-12.5 1.8-3.9 3.6-8.2 4-9.5.4-1.4 1.1-2.7 1.4-3 .7-.5 4.4-13.3 4.2-14.5 0-.2.6-2.3 1.4-4.5.8-2.2 1.2-4 1-4-.3 0 .2-1.7 1-3.8 1.5-3.8 4-13.4 4.9-18.7.3-1.7.7-4.1 1.1-5.5.3-1.4.7-3.6 1-5 .3-1.4.7-3.6 1-5 .3-1.4.8-3.9 1.1-5.5.3-1.7.7-3.5.8-4 1.4-5.5 2-10.2 2.1-17 .1-4.4.7-9.8 1.4-12 .7-2.2 1.2-8 1.1-12.8 0-5.2.6-10.6 1.4-13.1.8-2.3 1.3-5.7 1.1-7.6-.2-1.9-.6-5.7-.9-8.3-.4-4 0-5.9 2.1-10 1.4-2.8 2.7-6.5 3-8.2.3-1.6 1-3.7 1.7-4.5 2.9-3.7 4.5-8 5.1-13.5 1.1-10.2 1.1-10.3 5.8-20.5 8.4-18.5 10.4-27.2 7.4-33.3-.8-1.8-2.1-4.5-2.8-6.2-1.6-3.4-15-17.5-16.7-17.5-.7 0-1.2-.4-1.2-.9 0-1.5-17.4-8.3-26.9-10.5-1.4-.3-4.7 0-7.3.5-2.7.6-5.1.9-5.4.6-.6-.5-1.4-4.2-1.9-8.5-.2-1.8-.7-3.8-1.1-4.4-.4-.7-.8-2.3-.9-3.7 0-1.3-.6-2.6-1.3-2.9-.7-.2-1.2-1-1.2-1.8s-2.1-3.6-4.8-6.2c-4.8-4.7-11.1-8.4-21.2-12.2-6-2.2-11.1-3.1-25.7-4.4-2.3-.2-5-.7-6-1-1.7-.5-5.8-9.7-7-15.6-.2-1.4-1.5-3.2-2.8-4-1.3-.8-6.1-4-10.7-7.1-7.8-5.2-16.2-9.2-21.8-10.5-5.5-1.2-16.7-1.1-20.2.1-3 1-4.1 1-5.5 0-5.8-4-11-6.1-14.6-5.8-4.2.4-4.1.7-2.3-7.7 1.2-5.4 1.7-7.6 2.1-10 .3-1.4.7-3.6 1-5 .3-1.4.7-3.5.9-4.6.3-1.2 1.3-6.4 2.5-11.5 1.1-5.2 2.2-10.5 2.5-11.9.2-1.4 1.4-6.8 2.6-12 3.8-16.9 3.4-33.1-.9-39.1-1.5-2-1.8-3.7-1.4-8.5 1.1-13.2.8-29.9-.5-33.9-4.8-14.3-9.7-19.2-21.2-21-1.4-.2-4.1-.7-6-1.1-13.5-2.7-24.2.9-33.6 11.5-4 4.4-4.3 4.5-6.1 2.8-2.6-2.2-4-7.2-3.7-12.2.7-9.3 1.4-14.2 2.4-17.5.6-1.9 1.3-4.9 1.6-6.5.3-1.7 3.2-14.9 6.5-29.5 5-22.6 6.5-28.7 7.4-32 .4-1.5 1.6-9 1.5-9.2-.1-.2.4-1.7 1-3.3.7-1.7 1.4-4.1 1.6-5.5.3-1.4 2.1-9.3 4.1-17.5 1.9-8.3 3.7-16.4 4-18 .2-1.7.9-4.8 1.5-7s1.2-4.9 1.4-6c.1-1.1 1.1-5.7 2.2-10.3l2-8.3-2.5-1c-1.3-.5-3.1-.9-3.9-.9-.8 0-3.4-.9-5.8-2l-4.3-1.9 2.4-10.3c1.3-5.7 2.6-11.4 2.8-12.8.3-1.4.8-3.2 1-4 .2-.8.7-3 1-4.9.3-1.9.8-3.7 1-4.1.2-.4.7-2.2 1-4.1.3-1.9 1.2-5.9 2-8.9s1.6-6.6 1.9-8c.2-1.4 1-4.8 1.6-7.5.6-2.8 1.3-5.9 1.6-7 .3-1.7.7-3.4 1.9-8.5.1-.3.7-3.2 1.5-6.5s1.4-6.2 1.5-6.5c.3-1.2 2.6-11.7 2.9-13.5.2-1.1 1.1-4.7 2-8 .8-3.3 1.7-7.4 2-9 .3-1.7.8-4.2 1.1-5.7.4-2.1-.3-3.5-3.3-6.6-3.5-3.7-5.3-4.7-9.9-5.7-2.4-.5-20.4-5.5-22.3-6.1-.9-.3-1-.8-.4-1.2.5-.4 1.8-2.7 2.9-5.2 2.6-6.2 3.8-7 8.3-5.8 2 .6 4.6 1.2 5.7 1.3 1.1.2 3 .6 4.2.9 1.2.2 2.7-.2 3.4-1 .6-.8.9-1.4.6-1.4-.3 0 .1-2.1.9-4.8.8-2.6 1.7-5.8 1.9-7.2.2-1.4 1.7-8.1 3.3-15 1.6-6.9 3.9-16.8 5.1-22 1.2-5.2 2.6-10.9 3.1-12.5.5-1.7 1.2-4.8 1.6-6.9.3-2.2 1-4.9 1.4-6.2.5-1.2.6-2.5.3-2.8-.4-.3-.2-.6.4-.6.6 0 .9-1.1.8-2.5-.2-1.4.1-2.7.6-3.1.5-.3.7-.9.4-1.4-.3-.5-.1-1.1.5-1.5.6-.4.8-1 .5-1.5-.3-.5 0-2.1.5-3.6 1.8-4.5 2.4-13.3 1.1-14.8-.7-.8-.8-1.7-.3-2 .5-.3.9-1.9 1-3.7 0-1.7.9-4.1 2-5.3 2.7-3 3.9-5.5 4.6-10 .4-2.1.8-4.2 1.1-4.6.3-.4.7-2.5 1.1-4.6.3-2.2 1.1-4.8 1.7-5.9.6-1.1 1-2.1.9-2.3-.1-.1-.2-.3-.1-.5 0-.1.2-1.4.4-2.8s.8-4.3 1.4-6.5c.5-2.1 1.2-5 1.5-6.4.3-1.4 1.2-5.4 2.1-9 .9-3.5 1.8-8 2.1-10 .3-1.9.9-4 1.2-4.5.4-.6.8-1.7.9-2.5.1-.8.4-2.4.5-3.5.2-1.1.7-2.6 1.1-3.3.5-.6.6-1.2.4-1.2-.2 0 .2-2.6 1-5.8 1.2-5.1 1.8-7.4 2.8-12.2.2-.8.4-1.5.5-1.5.1 0 .3-.7.5-1.5.1-.8 1.1-5.1 2.1-9.5s1.9-8.3 2-8.8c.1-.4.2-.8.4-1 .1-.1.3-1.1.5-2.2 1-4.8 1.6-7.5 3.5-15.5 1.1-4.7 2.3-9.6 2.6-11 .3-1.4 1-4.3 1.6-6.5.5-2.2 1.2-4.9 1.4-6 .2-1.1 1.5-6.7 3-12.5 1.4-5.8 2.8-11.6 3.1-13 .4-2.2 1.8-8.6 2.9-13.3.2-.9.6-2.5.8-3.5.2-.9 1.3-5.5 2.5-10.2 1.1-4.7 2.3-9.6 2.5-11 .3-1.4 1.7-7.2 3.1-13 2.8-11.4 3.2-13.3 3.9-16.8.3-1.3.7-3.1 1-4 .3-.9.7-2.8 1-4.2.3-1.4.7-3.4 1-4.5 1.7-6.6 3.6-14.8 4.1-17.4.3-1.6.9-4 1.4-5.3.5-1.3.9-2.6.9-3.1 0-.4.3-2 .6-3.5.4-1.5.8-3.6 1-4.7.2-1.1.9-4 1.6-6.5.7-2.5 1.4-5.2 1.5-6 .2-.8.4-1.5.5-1.5.1 0 .3-1.1.5-2.5s.6-3.4.9-4.5c.5-1.8 3.2-13.4 4.1-17.8.2-1 .7-2.7 1-3.7.6-1.9 1.1-4.2 2.1-9.4.2-1.6.7-3.2.9-3.6.2-.4.7-2 .9-3.6.7-3.3.7-3.6 4.1-16.9 1.5-5.5 2.8-10.9 3-12 .3-1.1.7-2.9 1-4 1.5-5.9 5.7-23.9 7.1-30 .9-3.9 1.7-7.5 1.8-8 .1-.6.5-1.9.9-3 .3-1.1.8-3.1 1.1-4.5.3-1.4.8-3.6 1.1-5 .3-1.4.8-3.6 1.1-5 .3-1.4.7-3 .8-3.5.2-.6.6-2.4 1-4 .4-1.7 1.2-4.8 1.7-7s1.2-5.1 1.5-6.5c.7-3.4 1.3-6.1 2-9 .3-1.4.7-3.2.9-4 .1-.8.5-2.2.9-3.1.4-.9.6-2 .5-2.5-.1-.5 0-1.2.1-1.7.1-.4.4-1.2.5-1.7.1-.6.3-1.1.5-1.3.2-.3.9-3.8 1.3-6.7.2-1.4.6-3.1 1-3.6.3-.6.9-2.6 1.2-4.5.3-1.9.8-4.2 1.1-5.1.3-.9.7-2.5.9-3.5.2-1 1.1-5 2-8.8.9-3.9 1.8-7.7 2-8.5.2-.8.6-2.7 1-4.1.8-3.1-.1-3.9-9.7-8.8-4-2.1-13.2-6.8-20.3-10.5-7.2-3.6-15.5-7.3-18.5-8.2-3-.8-6.4-1.7-7.5-2.1-1.1-.3-3.1-.7-4.5-.8-1.4-.2-2.5-.4-2.5-.5 0-.1-1.1-.4-2.5-.6-3.8-.7-5.3-1-8-1.7-3-.8-12.8-1.6-13.2-1.1zm-383.4 628c.3.8.2 1.2-.4.9-.6-.3-1-1-1-1.6 0-1.4.7-1.1 1.4.7zm-.5 2.7c-.2.1-1.3.9-2.4 1.7-1.9 1.4-1.9 1.4-.6-.3.7-.9 1.8-1.7 2.4-1.7.6 0 .8.1.6.3zm-6.4 4.7c-1 1.1-2.1 1.7-2.4 1.4-.3-.3.3-1.2 1.3-2 2.8-2 3.2-1.7 1.1.6zm347.9 481.2c-.3 2.4-1.9 9.5-3.4 15.8-1.5 6.3-3.1 12.7-3.4 14.2-.7 2.9-2 3.4-4.5 1.9-1.2-.7-.4-4 4.4-18.5 5.7-17.2 8.2-22 6.9-13.4zM1314 1357.4c0-1.5 5 5.2 5.1 6.8.1 1 .2 2.4.3 3 .3 1.9-2.7 6.8-4.1 6.8-.7 0-1.3.4-1.3.9s-.6.8-1.2.7c-7.6-1.4-9.4-3-10.8-9.3-1.3-5.4 5.5-11.4 10.3-9.1.9.5 1.7.6 1.7.2z"/></svg>