<svg version="1" xmlns="http://www.w3.org/2000/svg" width="898.667" height="898.667" viewBox="0 0 674.000000 674.000000"><path d="M0 337v337h330c285.9 0 330-.2 330-1.4 0-.8 1.2-1.7 2.8-1.9l2.7-.4-2.7-.2c-2.7-.1-2.8-.3-2.8-5.1v-5h4.9c3.8 0 5 .4 5.3 1.7.3 1.5.4 1.5 2.1-.1 1.6-1.7 1.7-18.8 1.7-331.7V0H353.8l.6 3.2c.4 1.8 1.4 8.2 2.2 14.3.9 6 1.7 11.1 1.9 11.3.1.2.6-1.3.9-3.2.7-3.9 2.6-5.9 4.4-4.7 1 .6.8 1.8-.6 5.2-2.8 6.4-3.4 10.2-2.7 15.2 1 6.5 2.1 7.7 4.4 5 2.7-3.2 3.1-1.5 3.1 11.6 0 9.5-.2 11-2 12.6-2 1.8-2 1.7-2-.8 0-3.5-1.8-3.5-2.5 0-.3 1.6-1.5 5.7-2.7 9.3-1.4 4.2-2.2 9.5-2.4 15-.2 8.5-.9 17.4-1.9 26-1.2 9.9-1.5 10.8-3.3 10.6-1.1 0-1.8.7-2 2.1-.3 1.8 0 2.1 1.3 1.6 2.3-.8 1.8 1.3-3.4 12.9-1.7 3.8-2.9 5.1-6.6 6.8-7 3.2-10.3 3.6-11.2 1.4-.6-1.7-.8-1.6-1.3.6-.5 2.1-1.2 2.5-4.1 2.4-7.9-.2-10.7-1.3-11.9-4.7-1.5-4.3.1-5.5 13.1-9.8 7.7-2.5 11-4.1 13.4-6.6 2.9-3 5.3-8.9 4-10.1-.2-.2-2.4.4-4.7 1.5-4.5 2.1-17.7 4.8-18.6 3.8-.3-.3 0-.5.6-.5.7 0 1.2-.6 1.2-1.3 0-1.3 2.2-2.1 15.9-6.3 10-3 11.5-2.7 10.9 2.1-.3 2.7-.1 3.4 1 3 .7-.3 1.8-.5 2.3-.5 1.5 0 1-4.6-.8-8.5-1.4-2.9-2.2-3.5-4.9-3.5-1.7 0-3.7.7-4.4 1.5-.7.9-3 1.5-5.4 1.5-2.2.1-5.2.7-6.6 1.5-2.8 1.6-7 2-7 .6 0-.5.7-1.1 1.5-1.4.8-.4 2.4-2.5 3.6-4.9 1.2-2.4 3.4-6.1 4.9-8.3 1.5-2.2 3.1-6 3.5-8.5.7-4.3.7-4.4-1.1-2.9-2.1 1.7-8.9 3.9-12.3 3.9-3.4 0-5.2-3.2-8.1-14.2-1.5-5.7-3.5-13-4.4-16.3-2.1-7.6-2-8.7.5-11.9 3-3.9 6.1-3.4 9.3 1.5 4.2 6.2 11.3 8.5 17.3 5.4 1.5-.8 4.5-1.7 6.6-2 3.1-.5 3.7-.9 3.2-2.4-.3-1 .1-2.4 1-3.1.9-.8 2.3-2.6 3.1-4.2.8-1.5 2-2.8 2.7-2.8.7 0 1.8-.9 2.5-2 .7-1.2 1.8-1.8 2.4-1.4 1.2.8.6-11.4-.6-13.5-1-1.6-7.8-1.3-10.3.4-4.6 3.2-26.7 12.5-28.5 11.9-1.4-.4-1.7-.1-1.6 1.7.3 2-.2 2.3-3.9 2.7-3.4.3-4.3 0-4.3-1.2 0-2.1-.7-2-3.8.4-1.9 1.6-2.7 1.8-3.3.8-.6-.9-5.2-1.3-16.6-1.4-8.7-.2-18.3-.7-21.3-1.2-3.2-.6-6.2-.6-7.2-.1-2.7 1.4-5.5 7-6.2 12.3-.3 2.7-1 5.4-1.6 6.1-.5.6-.7 2.2-.5 3.6.3 1.3.6 4.8.6 7.6.1 3.7.5 5.1 1.3 4.7.6-.4-.5.8-2.4 2.5-1.9 1.8-2.9 3-2.2 2.6 1.5-.7 1.6.7.2 2.1-1.5 1.5.4 13.9 2.9 18.9 1 2.2 2.6 6.9 3.5 10.4.9 3.5 2.7 9.1 4 12.4l2.5 5.9-3-2.8c-1.7-1.6-4.2-5-5.6-7.7-2.8-5.1-4.5-5.9-1.9-.8.9 1.7 1.6 3.2 1.5 3.3-.2.6 1.3 10.5 2.3 14.2 1.1 4.3.5 5.5-1.7 3.6-1.1-.9-1.5-.9-1.5-.1 0 .7 1.4 2 3.1 2.9 1.7.9 6.5 3.8 10.7 6.4 4.4 2.8 12 6.2 18.3 8.3 5.9 2 14.4 5.4 18.9 7.6 12.8 6.2 17.2 5.5 30-4.3 1.9-1.4 5.4-3.4 7.7-4.3 4.9-2 8.6-6.4 12.2-14.9 1.5-3.3 4.4-8.8 6.6-12 3.3-5 4-6.8 4-10.9 0-2.8.5-5.2 1.1-5.4 1.3-.4 4.6 5.6 6.9 12.6 2.7 8.4 5.3 12.1 8.3 12.1 4.6 0 13 7.6 19.9 18.4 3.6 5.4 7.1 11.7 7.9 13.9.8 2.2 1.8 4.5 2.3 5.1 2.4 2.9 13.1 24 15.9 31.1C435.7 246 459 316.4 459 321.8c0 2.4-.5 7.5-1.1 11.4-.8 5.3-.8 7.7.1 9.6 1.4 3.1.6 3.7-6.7 5.3-6.8 1.6-7 3.4-.3 2.6 2.8-.3 5-.3 5 .1 0 1.3-10.3 7.1-13.6 7.8-2.3.4-5-.3-10.7-2.9-10.8-5-27.3-14.4-31.2-17.8-1.8-1.6-3.7-2.9-4.2-2.9s-2.2-1.3-3.8-3c-1.5-1.6-3.3-2.7-3.8-2.3-.6.3-.7.1-.4-.4.4-.6-.2-1.8-1.2-2.7-1.7-1.5-1.8-1.4-3 1-1 2.2-.9 2.8.6 3.9 1 .8 1.5 1.7 1.1 2.1-.4.4-1.4.1-2.2-.5-1.2-1-2-.8-4.3.8-2.2 1.7-3.4 1.9-5.9 1.2-3.9-1.1-31.1 1.4-37.3 3.4-2.5.8-4.6 1.4-4.7 1.2-.1-.1.4-1.3 1.1-2.7.9-1.6 1.5-1.9 1.5-1 .3 4.3 10.4-34.3 13.1-49.8 2.1-12.8 2.6-34.1.8-43.8-1.9-10.6-5.8-21.8-9.9-28.4-4.9-7.9-6.5-13.1-5-16.1.6-1.1 1.1-3 1-4.2-.4-4.3 0-5.6 2-6.2 1.1-.3 2-1 2-1.4 0-.4-3.5-2.4-7.8-4.4-12.3-5.8-19.4-5.1-28.2 3-4.1 3.6-8.6 10-7.7 10.9 1 1 12 7.4 12.7 7.4.5 0 2.8 2.2 5.3 4.9 5.3 5.9 5.5 8.7 1 15.2-4.2 6.2-6.7 11.2-9.6 20.1-2.8 8.4-7 25.5-8.7 35.8-2.1 12.4-7.2 31.6-12.8 48-3 9.1-6.6 19.8-8 23.8-1.3 4-2.1 7.6-1.8 7.9.3.4 3.4.6 6.9.5 6.2-.2 16.7 2.1 16.7 3.7 0 .4-.7 3-1.5 5.7-1.4 4.8-1.2 5.6 2 6.7.6.2.5 2.2-.2 5.3-.7 2.9-.8 5-.2 5.2 1.2.5 1.2 3.2-.1 3.2-.5 0-.7.7-.4 1.5.4 1 .2 1.3-.8 1-1-.4-1.4.4-1.5 3 0 1.9.3 3.5.8 3.5s.9.7.9 1.5-.9 1.5-2 1.5-2 .5-2 1.1c0 1.1-4.6 5.9-5.6 5.9-.2 0-.4-.6-.4-1.3 0-.8-1.7-1.2-5.6-1.1-3.9 0-5.7-.3-6.1-1.3-.4-1-.9-1.1-1.9-.2-.7.6-1.8.8-2.4.4-.7-.4-1 2.5-1 8.9v9.4l-4.1 5.2-4.1 5.2 1.3 4.6c1.1 3.8 1.4 4.2 2.1 2.6.5-1 2.7-3.2 4.8-4.7 2.2-1.5 3.7-3.3 3.4-4-.3-.8 1.3-2.3 3.6-3.6l4-2.2v3c0 7.4-9 28.1-12.3 28.1-.5 0-3.4-.8-6.4-1.7-4.6-1.4-5.8-2.4-8.3-6.5-3.6-5.8-3.8-10.9-1.5-33.6 3.5-33.6 6.8-50.5 10.7-54.4 1.6-1.6 3.1-7.1 6.6-24.7l4.6-22.6V291c0-28.7-2.1-44.6-9.9-75.8-1.3-5.2-2.2-9.9-1.9-10.6.3-.7-.4-4-1.4-7.4-1.1-3.3-1.5-6.3-1-6.4.5-.2.3-1.9-.5-3.8s-2.4-8-3.7-13.5c-1.2-5.5-3.3-13.8-4.7-18.5-1.5-4.8-2.7-11.8-2.9-16.3-.2-4.2-1.7-13.8-3.4-21.2-3.4-15.3-3.4-15.5-1.9-15.5.5 0 .8.4.4.9-.3.5-.1 1.2.4 1.5.5.3 1.1 0 1.4-.8.7-1.8-6.1-22.4-8.5-25.9-1.8-2.5-2.7-8.9-2.8-19.9 0-3.1-4.3-6.9-7.9-7.1l-3.4-.2-2.9-10.5c-2.3-8.4-3-13.4-3.5-25.3L213.7 0H0v337zM366.1 38c.5 2.3.7 4.5.4 4.8-.3.3-.5-.1-.5-1 0-.8-1.1-2.4-2.4-3.7-1.6-1.5-2.2-2.9-1.8-4.7.4-2.2.7-2.4 1.9-1.1.8.8 1.9 3.3 2.4 5.7zM213 52.4c-1.4 1.2-2.7 1.9-2.8 1.4-.6-1.3 1.8-3.8 3.7-3.8 1.2 0 1 .6-.9 2.4zm135-1.1c0 1.3-4.9 4.7-6.7 4.7-.5 0-1-.6-1-1.4 0-.7.7-1.1 1.7-.9.8.2 2.4-.5 3.4-1.6 2.2-2.4 2.6-2.6 2.6-.8zM210.7 62.2c-.3.8-.6.5-.6-.6-.1-1.1.2-1.7.5-1.3.3.3.4 1.2.1 1.9zm5.9 1.4c-.3.9-.6 4.1-.6 7.1 0 4.8-.2 5.4-1.5 4.3-1.5-1.3-4-8.8-3.1-9.7.2-.3 1.1 1.7 2 4.4.9 2.6 1.4 3.7 1.1 2.3-.6-3.4.5-10 1.7-10 .6 0 .7.7.4 1.6zm82.6 19.8c2.4 2.5 1.9 8.1-.9 10.2-1 .7-1.4 1.4-1 1.4.5 0-.4 2.3-1.9 5-1.6 3-3.3 4.9-4 4.6-.8-.3-1.1.3-.8 2 .5 3-1 3.1-3 .3-.9-1.4-2.1-1.9-3.1-1.5-1.2.4-1.6.2-1.2-.8.3-.8-.1-1.7-.9-2-1.2-.4-1.2-1-.4-2.6.8-1.5.8-2-.1-2-.6 0-.9-.7-.5-1.5.3-.8.1-1.5-.4-1.5-.6 0-.9-.3-.9-.8.4-2.2-.4-3.1-2.8-3-5.4.1-6-.1-3.9-1.7 1.1-.8 1.6-1.5 1.2-1.5-.4 0-.4-.5 0-1.1.4-.8.9-.7 1.5.2.6 1 .9 1.1.9.1 0-.7 1.3-1.2 3-1.2 3.2 0 9.8-2.9 14-6.2 2.3-1.9 2.5-1.9 2.9-.2.1.9 1.2 2.6 2.3 3.8zm64.1-.2c-.1 1.8-.4 5.6-.6 8.4-.2 2.7-.7 5.6-1.1 6.2-.4.7-.5 1.6-.2 2 .2.4-.4 1.3-1.4 1.9-1.6 1.1-1.8.8-1.5-3.7.3-5.4 3.4-18 4.5-18 .3 0 .5 1.5.3 3.2zm-135.5 8.3c0 4.4-1 5.9-2.2 3-.3-.8 0-1.5.7-1.6.8 0 .8-.2.1-.5-.6-.3-.9-1.6-.6-2.9.7-4 1.9-2.9 2 2zm83.2 4.6c0 3.4-.8 3.6-3.8.9-2.1-2-3.1-4.7-1.4-3.6.4.2 1.4.1 2.2-.4 2-1.3 3-.3 3 3.1zm-11.6 11.7c-.4 1.8-1.4 3.4-2.5 3.7-1.1.4-1.7 1.1-1.4 1.6.4.5 0 .9-.8.9-.7 0-1.9 1.2-2.6 2.7-.9 2-1.5 2.3-2.4 1.4-.9-1-.8-1.6.8-2.9 1.1-1 2.9-3.5 4-5.7 1-2.2 2.3-4.6 2.9-5.3 1.5-2 2.7.1 2 3.6zm59.8 20.4c-.8.8-.9.4-.5-1.3.4-1.3.8-1.8 1.1-1 .2.7-.1 1.8-.6 2.3zm-120.7 23.7c-4 3.8-3.8 2.7.4-2.6 1.4-1.8 2.8-2.8 3-2.2.2.6-1.3 2.8-3.4 4.8zm171 1.1c-1.1.5-3.3.8-5 .8-2.9 0-2.9 0-.5-.8 1.4-.4 3.6-.8 5-.8 2.3-.1 2.3 0 .5.8zM234 155.8c0 1.5-3.6 4.2-6.1 4.7-2.2.4-2.1.1 1.1-2.5 3.5-3 5-3.7 5-2.2zm-11 6.6c0 .2-.8 1-1.7 1.7-1.6 1.3-1.7 1.2-.4-.4 1.3-1.6 2.1-2.1 2.1-1.3zm258.5 2.6c-.3.5-1.6 1-2.8 1-1.8 0-1.9-.2-.7-1 2-1.3 4.3-1.3 3.5 0zM224 168.4c0 .2-3.9.9-8.7 1.6-4.9.7-9.2 1.5-9.8 1.8-1.7 1.1-14 5-14.3 4.7-.8-.8 9.8-4.8 15.8-6 11-2.3 17-3 17-2.1zm-42.5 12.5c-1.5 1.3-11.2 4.7-19 6.6-3.8.9-7.9 2-9 2.5-1.1.5-5.2.8-9.1.7-6.6-.2-7.1-.1-6.7 1.8.4 1.7.2 1.7-1.6-.5-1.9-2.4-1.9-2.5-.1-3.2 1-.4 8.5-1.6 16.7-2.7 11.9-1.6 21-3.5 29.3-6 .2 0 0 .3-.5.8zm143.5 4.7c2.2 2.2 2.4 3.2 2.1 9.8-.1 4.6.1 7.6.8 8 1.8 1.2 1.2 2.6-1.1 2.6-1.2 0-1.9-.3-1.5-.6.3-.3.1-1.8-.4-3.3-1.9-4.7-2.8-12.5-1.6-13.3.8-.5.6-1.3-.6-2.6-3.5-3.8-1.3-4.5 2.3-.6zm-112.6 1.2c.2.4-.9 1.5-2.5 2.4l-2.9 1.7 1.7-2.4c1.9-2.6 2.9-3 3.7-1.7zm-3.4 12.7c0 .2-.9.3-1.9.2-1.1 0-1.8-.5-1.5-.9.4-.6 3.4 0 3.4.7zm7 .5c0 .5-.5 1-1.1 1-.5 0-.7-.5-.4-1 .3-.6.8-1 1.1-1 .2 0 .4.4.4 1zm117 14.3c0 2.1.4 3.6.9 3.3.5-.3 1.1.5 1.3 1.9.4 1.6.1 2.5-.8 2.5-1.3 0-1.7-.9-3-7-1-4.7-1.1-5.4-.6-6.4.8-1.6 2.2 1.9 2.2 5.7zm8 11.1c0 .8-1.4 1.5-3.5 1.8-1.9.2-3.5 0-3.5-.4 0-.9 1.4-1.1 4.3-.9.9.1 1.7-.3 1.7-.8 0-.6.2-1.1.5-1.1s.5.6.5 1.4zm53 117.9c0 .5-1 .5-2.2.1-3-.9-3-.8-2.2-2.7.5-1.4.7-1.4 2.5.1 1 .9 1.9 2 1.9 2.5zm3 1.2c0 .9.6 1.2 1.8.8 1.3-.4 1.4-.3.6.6-1.3 1.4-4.4.4-4.4-1.5 0-.8.5-1.4 1-1.4.6 0 1 .7 1 1.5zm-48.6 3.4c-.6.6-2.4-1.9-2.4-3.4.1-.6.7-.1 1.5.9.8 1.1 1.2 2.2.9 2.5zm57.1.9c-.3.3-1.1 0-1.8-.7-.9-1-.8-1.1.6-.5 1 .3 1.5.9 1.2 1.2zm-55.5 1c0 1.4-1.1 2.1-2.6 1.5-.8-.3-1.1-.9-.8-1.4.7-1.1 3.4-1.2 3.4-.1zm19 7.3c0 .5-.7.9-1.5.9s-1.5-.7-1.5-1.5c0-.9.6-1.2 1.5-.9.8.4 1.5 1 1.5 1.5zm11 .9c4.8 4.8-.2 6.8-7 2.9-1.9-1.1-2.7-1.8-1.7-1.5.9.3 1.7.1 1.7-.4 0-.6-.6-1-1.2-1.1-1.4-.1 2.9-1.6 5-1.8.6-.1 2.1.8 3.2 1.9zm41 3.9l1.9 4.1-2.7-.6c-1.5-.4-3.5-1.1-4.5-1.6s-2.1-.7-2.5-.4c-.3.3 0 .6.6.6.7 0 1.2.4 1.2 1 0 .5-.7.6-1.7.3-1.1-.4-1.4-.3-.9.6.4.6.4 1-.1.9-.4-.1-1.8.4-3.1 1.1-1.3.7-3.1 1-3.9.7-1.2-.5-.5-1.7 3.1-5.3 2.5-2.6 4.6-5.1 4.6-5.5 0-.4 1.4-.6 3.1-.4 2.5.2 3.4 1.1 4.9 4.5zm8.4-.2c5.2 2.5 8 5.3 5.3 5.3-1.9 0-11.7-5.9-11.7-7 0-1.4.3-1.3 6.4 1.7zm43.1 7.8c2 5.2 3.1 21.5 1.5 21.5-1.5 0-2-3.2-1.9-11.5.1-6.4-.4-9.3-2-13-1.2-2.6-2.1-5-2.1-5.3 0-1.5 2.8 3.7 4.5 8.3zm-77.7-4.8c2.6 1.5 5.8 3.7 7 4.9 2.3 2.1 2.3 2.1.3 2.7-1.4.3-2.9-.5-5-2.8-1.6-1.8-4.3-3.9-6-4.6-3.1-1.4-4.1-2.9-2-2.9.6 0 3.1 1.2 5.7 2.7zm-11.8 1.2c0 .3-.4 1.3-1 2.1-1 1.7-2.3.8-2.5-1.9-.1-1.3.4-1.7 1.7-1.3 1 .2 1.8.7 1.8 1.1zm54.7 2.3c-.3.7-.5.2-.5-1.2s.2-1.9.5-1.3c.2.7.2 1.9 0 2.5zm8.3 1.3c0 .7-.8 1.5-1.7 1.9-1 .3-2.5.9-3.3 1.2-1.2.5-1.3.4-.2-.7.6-.7 1.2-2.6 1.2-4.3 0-2.8 0-2.9 2-1.1 1.1 1 2 2.4 2 3zm16-1c0 .9 1.4 1.5 3.8 1.7l3.7.3v9.1c0 5.1.3 9.5.8 10 1.5 1.5.6 3.1-2.8 4.7-1.9.9-3.5 1.5-3.5 1.3 0-.3-.3-1.1-.6-2-.5-1.2 0-1.6 1.9-1.6 3.5 0 4.4-1.8 1.2-2.6-2.7-.7-3.3-1.9-1.2-2.7 1.5-.6 2.2-6.7.7-6.7-.6 0-.8-.5-.5-1.1.4-.6-.2-1.9-1.3-3-2-1.8-2.1-1.8-2.7.2-1.1 3.5-1.7 1.3-.7-2.5.6-2.2.7-3.8.1-4.2-.5-.3-.9-1.2-.9-2s.5-1.2 1-.9c.6.3 1 1.2 1 2zm-36.9.2c1.3 1.6 1.2 1.7-.3.4-1-.7-1.8-1.5-1.8-1.7 0-.8.8-.3 2.1 1.3zm-46.3 2.1c.3.9-.2 1.3-1.4 1-.9-.1-1.9-.9-2.2-1.6-.3-.9.2-1.3 1.4-1 .9.1 1.9.9 2.2 1.6zm52.2.7c1.4.8 2.1 1.4 1.5 1.4-.5 0-2.1-.6-3.5-1.4-1.4-.8-2-1.4-1.5-1.4.6 0 2.1.6 3.5 1.4zm-116.4 4c-.4 2.5-1.4 2.7-3.5.6L309 374h2.9c2 0 2.9.5 2.7 1.5zm13.9.6c2.2.6 4.9 1 5.9 1 2.7 0 6.5 2.2 10.9 6.2 4.2 4 4.9 6.2 1.5 5.1-1.3-.4-2.6-1.2-3-1.8-.4-.6-.8-.7-.8-.2 0 .6-.5.5-1.2-.2-2.2-2.2-2.9-1.2-.8 1 1.1 1.2 3.5 2.4 5.3 2.6 3 .3 5.7 2.4 5.7 4.4 0 .5-2.4.6-5.2.2-4.7-.6-5.2-.6-4 .9.9 1 1 1.7.2 2.2-.6.3-.8 1.1-.4 1.6.4.6 1.3.4 2.4-.6 1.8-1.6 1.9-1.5 3.5 1.5.9 1.8 1.5 3.3 1.3 3.5-1.8 1.5-11.9 6.5-13.4 6.5-1.5.1-1.2.4 1.1 1.7 4.8 2.6 5.8 4 3.4 4.6-1.2.3-1.8.3-1.4-.1.3-.3-3.1-2.1-7.7-3.9-8.3-3.2-13.5-4.2-12.3-2.3.3.5 1.3 1 2.2 1 .9 0 2.7.9 3.9 2.1 1.2 1.1 3.9 2.7 6.1 3.4l3.8 1.4-4.1.1c-4.6 0-9.5-1.8-14.6-5.2-3.8-2.6-3.8-2.3-1.7-24.6l1.2-13.2h4.1c2.3 0 5.9.5 8.1 1.1zm75.9.4c1.1.8 1.6 1.5 1 1.5-.5 0-1.8-.7-2.8-1.5-1.1-.8-1.6-1.5-1-1.5.5 0 1.8.7 2.8 1.5zm-53.2 6.1c.6 1.3 1.5 2.1 1.9 1.8 1.6-1 .9.3-.8 1.7-1 .7-1.5 1-1.1.5.4-.4-1.5-2.7-4.2-5.1-2.8-2.5-4.4-4.5-3.7-4.8 1.7-.6 6.6 3.1 7.9 5.9zm31.3-5.6c.3.5.1 1-.4 1-.6 0-1.1-.5-1.1-1 0-.6.2-1 .4-1 .3 0 .8.4 1.1 1zm63 0c.8 1.3-2.5 1.3-4.5 0-1.2-.8-.9-1 1.2-1 1.5 0 3 .4 3.3 1zm1.1 5.2c.4 1.8.7 4.8.8 6.6.1 3-.1 3.2-3.2 3.2-2.8 0-3.1-.3-2.4-1.8.5-.9.9-3.8.8-6.5-.2-3.9.1-4.7 1.5-4.7 1.1 0 2 1.1 2.5 3.2zM421 381c0 .5-.7 1-1.6 1-.8 0-1.2-.5-.9-1 .3-.6 1-1 1.6-1 .5 0 .9.4.9 1zm-20.9 4.8c-.7.2-1.8-.1-2.3-.6-.8-.8-.4-.9 1.3-.5 1.3.4 1.8.8 1 1.1zm6.4 2.2c.3 0 .4-.4.1-.8-.3-.5.1-.9.9-.9 1.8 0 2.9 2.7 1.6 4-.6.6-2.1.2-4-.9-3.3-2-4.4-4.2-1.2-2.4 1.1.5 2.2 1 2.6 1zm40.5 6c0 .5-1.3 1-3 1-1.6 0-3-.5-3-1 0-.6 1.4-1 3-1 1.7 0 3 .4 3 1zm4 2c0 .5-.7 1-1.5 1s-1.5-.5-1.5-1c0-.6.7-1 1.5-1s1.5.4 1.5 1zm-71.6 3.8c-.4 1.2-1 2.2-1.6 2.2-.7 0-.7-1.5.1-6 .1-.2.5 0 1.1.6.5.5.7 1.9.4 3.2zm-27 2.5c0 5.2-.8 6.7-2.6 4.9-.8-.8-.8-1.2-.1-1.2 1.7 0 2.2-3.8.7-5.1-2-1.6-1.8-4.1.4-3.7 1.3.3 1.7 1.4 1.6 5.1zm5.6-3.3c0 .5-.2 1-.4 1-.3 0-.8-.5-1.1-1-.3-.6-.1-1 .4-1 .6 0 1.1.4 1.1 1zm183.4 2.5c.3.9 2.2 2.3 4.2 3.1 2.5 1 3.4 2 3 3-.3.9-.1 1.2.4.9.8-.5 1.4 1.3 1.2 3.6-.1.3.5.6 1.2.6s1.3-.6 1.3-1.3c0-.7-.5-1.1-1.1-.8-.6.3-.3-.1.7-.9 1.4-1.1 1.5-1.6.5-2.1-.7-.3 0-.4 1.5-.1 1.6.3 4.1 1.7 5.5 3 1.5 1.4 3.1 2.5 3.7 2.5.5 0 .4.4-.4.9-.8.6-2.4.6-3.8 0-1.6-.6-2.2-.5-2 .3.1.7-.6 1.4-1.7 1.6-1.3.3-1.6 0-1.1-.9.5-.8.4-1-.4-.5-.9.6-.9 1.1-.1 2.1.8.9.4 1.2-1.5 1-1.4-.2-2.3.2-2.2.8.1.6-.8 1.3-2.1 1.5-1.7.3-2.5-.2-2.9-1.8-.4-1.7-1.1-2.1-3-1.7-2.5.5-6.7-2.8-5.7-4.4.2-.4-.1-1.1-.7-1.5-.8-.4-.9-.3-.5.4s.2 1.2-.3 1.2c-.6 0-1.1-.4-1.1-1 0-.9-5.2-.6-7 .5-.5.3-1 .1-1-.6 0-.9-.4-.9-1.5.1-.8.6-1.8.9-2.3.6-.5-.3-2.1.1-3.5.9-1.5.8-3 1.4-3.2 1.4-.3 0-3 .5-6.1 1.1-3.1.7-5.8.9-6.2.5-1.1-1.1 1.4-3.9 4.4-4.7 3.6-1 8.5-2 10.2-2.1.6 0 1.2-.3 1.2-.6 0-.4 1.9-.7 4.3-.8 2.3-.1 6.1-.7 8.5-1.4 3.8-1.1 4.4-1 5.7.7.8 1 1.5 2.7 1.5 3.6 0 1 .4 1.8.9 1.8.6 0 .8.8.6 1.9-.3 1.4.1 1.8 1.5 1.4 1.7-.5 1.8-.7.5-2-.9-.8-1.3-1.9-1-2.4.4-.5.1-.9-.5-.9-.7 0-1-.6-.7-1.4.3-.7-.1-2.3-1-3.5-1.5-2.2-1.2-5.1.6-5.1.5 0 1.2.7 1.5 1.5zm-106.1 6.6c-1.6 3.7-1.8 5.1-.9 8.6 1.1 4.1 5.7 9 7.5 7.9.5-.3 1.4.8 2 2.6 1.3 3.6 1.5 9.8.3 9.8-1.4 0-4.2 5.7-4.2 8.7 0 1.5.9 4.3 2 6.1 2.2 3.5 2.6 6.7 1 7.7-.5.3-1 1.1-1 1.8 0 .6.7.4 1.7-.5 1.5-1.6 1.7-1.5 3.6.8 1.9 2.4 1.9 3.6.1 9.3-.5 1.7-.4 2.2.4 1.7 1.6-1 1.5 1.8-.3 8.8-2.9 11.1-5.2 27.4-4.6 33 .1.5.8.3 1.6-.4 1.2-1 1.6-1 1.9.1 1.3 4 2.8 13.8 3.5 24.5.7 8.8 1.6 13.9 3.6 19.4 9.7 26.6 13.8 50 9.8 54.9l-1.8 2.2-3.6-3c-4.7-3.9-21.6-8.1-39.4-9.7-3.8-.3-9-1.5-11.4-2.6-4.8-2.1-21.4-4.2-35.3-4.2-4.7-.1-8.4-.5-8.1-1 .3-.5-4-.5-9.8 0-5.7.4-11.9.7-13.8.6l-3.4-.2.7 8.2c.3 4.6.9 11.1 1.2 14.6l.6 6.3-3.3-.3c-3.4-.3-3.4-.3-4.1-6.7-.4-3.6-.8-11-1-16.5l-.3-10.1-4.8.3c-9.3.7-9.3.7-10.7-12.2-.9-8.2-1.1-21.1-.7-45.8.6-34.3 1.8-48.9 4.4-51.9 1.2-1.4 1.2-1.7-.2-2.3-.9-.3-1.3-1.1-1-1.6.4-.6.8-5 1.1-9.8.7-15.1 3.3-17.9 13-13.9 10.8 4.4 16.8 5.3 23.5 3.6 5.7-1.5 5.9-1.5 4.2.3-1.7 1.9-1.3 3.5.7 2.3 2.7-1.7 12.9-17.5 11.3-17.5-.4 0-2 1.5-3.6 3.2-2.7 3.1-2.9 3.1-2.2.8 1.1-3.9 2.5-5 5.8-5 4.1 0 9.2-3.7 11.4-8.2 1-2.1 2.1-3.8 2.4-3.8 1.3 0 13-12.8 15.9-17.3l3-4.7 4.1 2.6c4 2.5 4.3 2.5 8 1.1 2.6-1 4-1.2 4.8-.4.7.7 1.3.3 1.9-1.4l.9-2.3 1.4 2.2c2.4 3.8 5.7 2.9 8.1-2.4 1.3-3.1 2.3-4.3 3-3.6.7.7.4 2.4-.9 5.3zm158.1 3.3c3.3 1.7 8.4 5.4 11.7 8.7 6.7 6.7 8.9 12.3 10.9 27.9 1.8 13.8.4 21.5-4.9 27.9-5.1 6.1-9.8 8.4-18.1 8.9l-6.5.3 3-1.8c4.2-2.6 7.6-4 10.7-4.7 4.2-.9 9.8-7.1 9.8-10.7 0-1.6.7-4.6 1.5-6.6 1.8-4.4 1.3-12.1-1.6-23.1-1.6-6.2-6-15.2-7.3-15.2-.3 0 .6 2.6 1.9 5.8 1.8 4.3 2.4 8 2.6 14.7.3 13.2-2.7 22.1-5.2 15.8-.7-1.5-3-6.7-5.2-11.6-4-8.7-4-8.7-6.1-6.8-1.2 1-3.2 2.2-4.6 2.6-1.9.5-1.5 0 1.5-2 2.2-1.5 4.4-2.8 5-2.9 1.8-.3 3.5-1.7 3.5-2.9 0-.8-.3-.8-1.2.1-1.7 1.7-3.3 1.5-1.8-.3 1.5-1.8 5.5-2.1 4.4-.3-.4.7-.3.8.5.4 1.4-.9.5-2.3-4.8-7.2-1.8-1.7-3.1-3.6-2.8-4.2.4-.5-.7-2.8-2.3-5.1-3.5-4.8-3.6-5.1-1.2-5.2 3.2-.1-1.9-1.6-8.3-2.4-7-.8-8.6-1.5-5.9-2.7 4-1.6 14.7-.3 20.8 2.6zm-245 .1c-.7 1.6-2.4 2.1-2.4.6 0-.8.7-1.3 2.7-2 .1-.1 0 .6-.3 1.4zm214.1 5.9c-1.1.7-3 1.6-4.3 2-1.2.4-1.9 1.2-1.6 1.8.5.7 0 .9-1.4.6-1.4-.4-2-.2-1.5.5.4.7 0 .8-1.3.3-1-.4-1.5-.4-1.1 0 .8.8-1.1 3.4-2.4 3.4-.5 0-.6-.7-.3-1.5.4-.9.1-1.5-.7-1.5-2.7 0 .8-2 7.6-4.4 8.2-2.8 9.7-3.1 7-1.2zm9.5.1c1 1.2 1 1.5-.4 1.5-.9 0-1.6-.7-1.6-1.5s.2-1.5.4-1.5.9.7 1.6 1.5zm-28.5.5c.3.5.1 1-.4 1-.6 0-1.1-.5-1.1-1 0-.6.2-1 .4-1 .3 0 .8.4 1.1 1zm43.5 1.9c0 1.8-1.8 2.1-3 .6-1-1.3-.9-1.5.9-1.5 1.1 0 2.1.4 2.1.9zm1.3 4.8c.2 1 .8 2.7 1.2 3.8.6 1.7.4 1.7-1.4-.4-2.2-2.4-2.8-5.1-1.2-5.1.5 0 1.1.8 1.4 1.7zm-29.9.3c-1.1.4-2.8 2-3.8 3.4-1 1.6-2.2 2.4-2.9 1.9-.7-.4-.7 0 .2 1 .7.9 1 1.7.6 1.7-.5 0 0 1 1.1 2.2 1.8 2 1.8 2.1.1 1.5-1.3-.5-1.7-.3-1.4.5.2.7 1 1.2 1.7 1 .6-.1 1 .3.7 1-.2.7-1.3 1.2-2.3 1.1-1.7-.1-1.6.1.4 1.4 2.3 1.6 3 4.3 1.1 4.3-.5 0-.7.4-.4 1 .3.6-.1.7-1 .4-2.4-.9-7.3 1.5-7.7 3.8-.3 2.2-7.2 6.7-8.4 5.5-.4-.4-.8-2.2-.8-4-.1-2.9-.4-3.3-2.9-3.2-1.8 0-3.5.9-4.7 2.5l-1.9 2.5-2.3-2.4c-1.3-1.3-1.8-2.1-1.2-1.8.6.3 1.8-.3 2.7-1.3 1.6-1.9 1.5-1.9-1.6-1.4-2.4.4-2.8.3-1.7-.5 1.3-.9 1.3-1.1-.2-1.1-.9 0-1.8-.5-2-1.2-.2-.6-1.3-1.2-2.4-1.2-1.1-.1-2.4-.4-2.9-.7-.6-.3-3.2-1.2-6-1.9-6.3-1.6-8.6-3.6-3-2.5 6.6 1.2 8.8 1.2 11.7.1 1.9-.7 2.4-1.3 1.5-1.9-.7-.5-.3-.6 1.1-.2 1.2.4 3.8.1 5.7-.5 3-1 3.6-.9 5.4.9 1.9 1.9 5.1 2 5.1.2 0-.8 4.8-3.4 6.3-3.5.5-.1 2.2-1.5 3.9-3.1 2.9-2.9 9.8-6.4 12.8-6.4.9 0 .7.4-.6.9zm28.5 6c.1.8-.6.2-1.4-1.4-.8-1.5-1.5-3.6-1.4-4.5.1-1.9 2.8 3.7 2.8 5.9zm-99.6-2.9c-4 2.7-5.3 2.3-1.8-.5 1.6-1.3 3.4-2.2 3.8-1.9.5.3-.4 1.4-2 2.4zm21.2 8.9c.7 1.2-.2 1.2-3 0-1.9-.8-1.9-.9.2-.9 1.2-.1 2.5.3 2.8.9zm-15 1c.3.5.2 1-.4 1-.5 0-1.3-.5-1.6-1-.3-.6-.2-1 .4-1 .5 0 1.3.4 1.6 1zm-2.5 1.5c1.1 1.3 1 1.4-.4.9-.9-.3-1.6-1-1.6-1.5 0-1.3.6-1.1 2 .6zm134 7.6c0 .9-1.1 2.4-2.3 3.2-2.3 1.5-2.4 1.5-1.9-.9.2-1.3.8-2.4 1.3-2.4 1.5 0 1-2-1.1-4.2-1.1-1.2-2-2.7-2-3.2.1-1.8 6 5.7 6 7.5zM502.5 441c.3.5 0 .7-.8.4-.8-.3-1.8-.1-2.1.4-.3.6-1.5.8-2.5.5-1-.3-2.2 0-2.5.6-.4.6-1.9 1.1-3.3 1.1-3.6 0-2.4-.9 3.4-2.5 6.1-1.7 7-1.7 7.8-.5zm-14.1 1.5c-.4.8-1 1.5-1.5 1.5s-.9.9-.9 2c0 1.3-.7 2-1.9 2-2.5 0-3.6-1.6-1.5-2.4.8-.3 1.2-1.1.8-1.7-.4-.8-.3-.9.4-.5s1.2.2 1.2-.4c0-.6.4-.9.9-.5.5.3 1.2.1 1.6-.5.9-1.5 1.5-1.2.9.5zm105.2 3c1.9 4.6 1.8 5.4-.6 4.8-1.1-.3-2-.1-2 .4s-.8.9-1.8 1c-1.9.2-5-5.9-3.3-6.5.4-.1 1.7-.9 2.7-1.7 2.8-2.1 3.3-1.9 5 2zm-15.6 6.3c2.2 4.6 2.8 6.5 4 12 1.5 6.4 1 7.2-6.8 10.3-3.1 1.2-6.6 2.8-7.7 3.6-2.4 1.6-8.1 1.7-9.1.1-.4-.6-.7-3.7-.7-6.7 0-6.4 3.1-14.7 6.9-18.2 2.9-2.8 3.5-6.1.6-3.8-1 .8-.8.4.4-.7 2.1-2.1 2.5-2.1 6.7-.7 3 1 4.8 2.3 5.7 4.1zm7.4-2.2c1 3.7.2 3.9-1.1.4-.6-1.7-.8-3-.3-3 .4 0 1.1 1.2 1.4 2.6zM482.9 467c1.2 0 2.1.4 2.1 1 0 .5-.6.8-1.2.6-.7-.3-2.5-.7-4-1-1.6-.4-2.8-1.1-2.8-1.7 0-.6.6-.6 1.9.1 1.1.5 2.9 1 4 1zm12.5 2.2c-.7 1-5.1 1.1-5.8 0-.2-.4 1.1-.8 2.9-.8 1.9 0 3.2.3 2.9.8zm80.1 8.8c-.3.5-1.2 1-1.8 1-.7 0-.6-.4.3-1 1.9-1.2 2.3-1.2 1.5 0zm-4.5 2c-.8.5-1.9 1-2.5 1-.5 0-.3-.5.5-1s2-1 2.5-1c.6 0 .3.5-.5 1zm12.7 4.6c-.3.3-1.2.4-1.9.1-.8-.3-.5-.6.6-.6 1.1-.1 1.7.2 1.3.5zM251 522c-.7 11.3-2 29.7-2.9 41l-1.7 20.5 2.8 3.3c4.6 5.3 4.6 5.3-9.8 7.6-20.6 3.1-25.6 3.8-26.2 3.2-.9-1 3.8-22.6 5.7-26.6 1-1.9 5.4-10.3 9.9-18.5 4.4-8.3 10.4-20.9 13.2-28 2.8-7.2 6-15.1 7.1-17.7 1-2.6 1.9-5.5 2-6.5 0-1.3.2-1.4.6-.3.3.8 0 10.7-.7 22zm68.3 77.7c-.4 1.1-.8 1.3-1.1.5-.2-.7-.8-1-1.2-.7-.5.3-1.1.1-1.5-.5-.4-.6.5-1 1.9-1 2 0 2.4.4 1.9 1.7zm-.5 2.2c.8.4 1.3 1.1 1.3 1.5-.3 1.9 0 2.7.8 2.2.4-.3.7.6.5 1.9-.1 1.4.2 2.5.7 2.5.6 0 .7.5.4 1-.4.6-.2 1.7.5 2.5 1.5 1.8.5 2.2-6.7 2.4-5.2.2-6.3-.1-7.2-1.7-.7-1.4-.5-2.6.9-5 1.1-1.8 1.7-3.2 1.3-3.2-.4 0 .2-.7 1.3-1.5 1-.8 1.5-1.5.9-1.5-1.3 0 1.6-2 3-2 .6 0 1.6.4 2.3.9zm53.1 2.7c.2.2.2.6-.1.9-.9 1-5.8-.6-5.2-1.6.5-.9 4.1-.3 5.3.7zm67.4 4.8c4.1 1.7 7.6 7.6 7.7 12.8 0 1.6.8 3.1 1.9 3.7 1 .6 2.1 2 2.4 3.2.6 2.2.5 2.2-8.4 1.5-9.7-.7-12.2-1.3-11.3-2.7.3-.5 1-.6 1.6-.3.6.4.8.2.4-.4-.3-.6-1.5-.9-2.5-.7-1.1.2-2.2-.3-2.5-1.1-.3-.9-1-1.2-1.6-.9-.6.4-.7-.1-.3-1.1.5-1.2.3-1.5-.6-.9-1.1.6-1.1.3 0-1.6 1.1-2.2 1.1-2.3-.5-1-.9.8-1.6 1-1.5.5.1-.5.1-1.5 0-2.3-.1-1.1-.4-1.1-1.8 0-1.5 1.3-1.5 1.2-.3-1.1 1.2-2.2 1.2-2.4-.2-1.2-1.4 1.1-1.6.9-1.4-1.7.1-1.7 0-2.8-.2-2.6-.6.6-3.1-2.6-3.2-3.9 0-1.4 18.2 0 22.3 1.8zm-131.3 13c18.9.2 18.7 3.3-.2 3.5-8.8.1-9.9-.1-11.8-2.1-1.1-1.2-2-3.1-2-4.2 0-1.9.1-1.9 1.3.3 1.2 2.3 1.6 2.4 12.7 2.5zm41 2.6c0 .5-1.8 1-3.9 1-2.2 0-4.3-.5-4.6-1-.4-.6 1.2-1 3.9-1 2.5 0 4.6.4 4.6 1z"/><path d="M376.6 359.5c-.6 1.7.5 2.6 2.1 1.7.8-.5.7-1.1-.2-1.9-1-1-1.4-.9-1.9.2zM417 362.5c.7.8 1.7 1.5 2.2 1.5.6 0 .5-.7-.2-1.5s-1.7-1.5-2.2-1.5c-.6 0-.5.7.2 1.5zM337.6 382.5c.4.8.7 1.5.9 1.5.2 0 .5-.7.9-1.5.3-.9 0-1.5-.9-1.5s-1.2.6-.9 1.5zM331 393.5c1.4.8 3.2 1.4 4 1.4.9 0 .4-.6-1-1.4-1.4-.8-3.2-1.4-4-1.4-.9 0-.4.6 1 1.4zM336 592.1c0 .5 1.9.9 4.2.9 4.9 0 4.7-.5-.4-1.3-2.1-.3-3.8-.2-3.8.4zM548 430.4c0 .2.8 1 1.8 1.7 1.5 1.3 1.6 1.2.3-.4s-2.1-2.1-2.1-1.3zM248.2 13.4c.7.8 1.5 1.2 1.7 1.1.5-.6-1-2.5-2-2.5-.5 0-.4.6.3 1.4zM249.5 17c-.3.5-.1 1 .4 1 .6 0 1.1-.5 1.1-1 0-.6-.2-1-.4-1-.3 0-.8.4-1.1 1zM246 18.3c0 .7-1.5 3-3.2 5.2-1.8 2.2-2.8 3.6-2.1 3.2.6-.4 1.3-.4 1.6 0 .2.5.2.3.1-.4-.2-.6.4-1.7 1.2-2.3 1.1-1 1.4-1 1.4.1 0 .8.8 0 1.9-1.6 1-1.7 1.4-3.2.9-3.3-.4-.2-.6-.8-.2-1.3.3-.5 0-.9-.5-.9-.6 0-1.1.6-1.1 1.3zM248.9 22.7l-2.4 2.8 2.8-2.4c2.5-2.3 3.2-3.1 2.4-3.1-.2 0-1.4 1.2-2.8 2.7zM253.7 28.7c-1.4 1.3-.7 2.5.8 1.3.8-.6 1.9-.9 2.5-.5.5.3 1 .1 1-.4 0-1.2-3.3-1.5-4.3-.4zM240 29.9c0 .5.9.7 2 .4 1.1-.3 2-.7 2-.9 0-.2-.9-.4-2-.4s-2 .4-2 .9zM246.5 32.4c-1.1 3.9-1.2 5.6-.2 5.6.7 0 1.7-1.5 2.3-3.3.8-2.7.7-3.4-.4-3.4-.8 0-1.5.5-1.7 1.1zM257 33.6c0 .8.5 1.2 1 .9.6-.3 1-1 1-1.6 0-.5-.4-.9-1-.9-.5 0-1 .7-1 1.6zM241.4 33.8c.3.6.2 1.3-.4 1.7-.5.3-1 1.8-1 3.3.1 3 3.8 11.7 3.9 9 .1-.9-.3-2-.9-2.3-.5-.3-1-1.1-1-1.6 0-.6.5-.7 1.2-.3.8.5.9 0 .6-1.4-.4-1.2-.2-2.4.2-2.7 1.2-.7-.4-5.8-1.9-6.3-.8-.3-1.1 0-.7.6zM255.9 39.7c-1.3 1.5-1.2 1.5.9.4 2.3-1.2 2.8-2.1 1.3-2.1-.5 0-1.5.7-2.2 1.7zM365.6 54.8c-.2.4-.1 1.4.5 2.2.7 1.2.9 1 .9-.8 0-2.3-.5-2.8-1.4-1.4zM363.2 64c0 1.4.2 1.9.5 1.2.2-.6.2-1.8 0-2.5-.3-.6-.5-.1-.5 1.3zM335 89.2c0 1.5 6.7 8.8 8.1 8.8 2 0 .7-2.5-3.3-6.2-4.6-4.2-4.8-4.3-4.8-2.6zM291.1 200.8c-1 1.9-6.1 15.1-6.1 15.8 0 .2.5.4 1 .4.6 0 1.9-1.9 2.9-4.3 1-2.3 2.8-5.1 4-6.1 2.4-2.2 2.7-4.8.7-6.5-1.2-1-1.7-.8-2.5.7z"/></svg>